HIERARCHY
ROOT hip
{
  OFFSET 0 0 0
  CHANNELS 6 Xposition Yposition Zposition Zrotation Yrotation Xrotation
  JOINT abdomen
  {
    OFFSET 0 20.6881 -0.73152
    CHANNELS 3 Zrotation Xrotation Yrotation
    JOINT chest
    {
      OFFSET 0 11.7043 -0.48768
      CHANNELS 3 Zrotation Xrotation Yrotation
      JOINT neck
      {
        OFFSET 0 22.1894 -2.19456
        CHANNELS 3 Zrotation Xrotation Yrotation
        JOINT head
        {
          OFFSET -0.24384 7.07133 1.2192
          CHANNELS 3 Zrotation Xrotation Yrotation
          JOINT leftEye
          {
            OFFSET 4.14528 8.04674 8.04672
            CHANNELS 3 Zrotation Xrotation Yrotation
            End Site
            {
              OFFSET 1 0 0
            }
          }
          JOINT rightEye
          {
            OFFSET -3.6576 8.04674 8.04672
            CHANNELS 3 Zrotation Xrotation Yrotation
            End Site
            {
              OFFSET 1 0 0
            }
          }
        }
      }
      JOINT rCollar
      {
        OFFSET -2.68224 19.2634 -4.8768
        CHANNELS 3 Zrotation Xrotation Yrotation
        JOINT rShldr
        {
          OFFSET -8.77824 -1.95073 1.46304
          CHANNELS 3 Zrotation Xrotation Yrotation
          JOINT rForeArm
          {
            OFFSET -28.1742 -1.7115 0.48768
            CHANNELS 3 Zrotation Xrotation Yrotation
            JOINT rHand
            {
              OFFSET -22.5879 0.773209 7.07136
              CHANNELS 3 Zrotation Xrotation Yrotation
              JOINT rThumb1
              {
                OFFSET -1.2192 -0.487915 3.41376
                CHANNELS 3 Zrotation Xrotation Yrotation
                JOINT rThumb2
                {
                  OFFSET -3.37035 -0.52449 3.41376
                  CHANNELS 3 Zrotation Xrotation Yrotation
                  End Site
                  {
                    OFFSET -1.78271 -1.18214 1.43049
                  }
                }
              }
              JOINT rIndex1
              {
                OFFSET -7.75947 0.938293 5.60832
                CHANNELS 3 Zrotation Xrotation Yrotation
                JOINT rIndex2
                {
                  OFFSET -2.54057 -0.884171 1.56538
                  CHANNELS 3 Zrotation Xrotation Yrotation
                  End Site
                  {
                    OFFSET -1.62519 -0.234802 1.16502
                  }
                }
              }
              JOINT rMid1
              {
                OFFSET -8.24714 1.18213 3.41376
                CHANNELS 3 Zrotation Xrotation Yrotation
                JOINT rMid2
                {
                  OFFSET -3.10165 -0.590103 1.0647
                  CHANNELS 3 Zrotation Xrotation Yrotation
                  End Site
                  {
                    OFFSET -2.48547 -0.328903 0.83742
                  }
                }
              }
              JOINT rRing1
              {
                OFFSET -8.82822 0.546677 1.51678
                CHANNELS 3 Zrotation Xrotation Yrotation
                JOINT rRing2
                {
                  OFFSET -2.60934 -0.819778 -0.0198488
                  CHANNELS 3 Zrotation Xrotation Yrotation
                  End Site
                  {
                    OFFSET -2.33842 -0.294052 0.168128
                  }
                }
              }
              JOINT rPinky1
              {
                OFFSET -8.27202 -0.0477905 -0.4584
                CHANNELS 3 Zrotation Xrotation Yrotation
                JOINT rPinky2
                {
                  OFFSET -1.82734 -0.647385 -0.700984
                  CHANNELS 3 Zrotation Xrotation Yrotation
                  End Site
                  {
                    OFFSET -1.69225 -0.51767 -0.607171
                  }
                }
              }
            }
          }
        }
      }
      JOINT lCollar
      {
        OFFSET 2.68224 19.2634 -4.8768
        CHANNELS 3 Zrotation Xrotation Yrotation
        JOINT lShldr
        {
          OFFSET 8.77824 -1.95073 1.46304
          CHANNELS 3 Zrotation Xrotation Yrotation
          JOINT lForeArm
          {
            OFFSET 28.1742 -1.7115 0.48768
            CHANNELS 3 Zrotation Xrotation Yrotation
            JOINT lHand
            {
              OFFSET 22.5879 0.773209 7.07136
              CHANNELS 3 Zrotation Xrotation Yrotation
              JOINT lThumb1
              {
                OFFSET 1.2192 -0.487915 3.41376
                CHANNELS 3 Zrotation Xrotation Yrotation
                JOINT lThumb2
                {
                  OFFSET 3.37035 -0.52449 3.41376
                  CHANNELS 3 Zrotation Xrotation Yrotation
                  End Site
                  {
                    OFFSET 1.78271 -1.18214 1.43049
                  }
                }
              }
              JOINT lIndex1
              {
                OFFSET 7.75947 0.938293 5.60832
                CHANNELS 3 Zrotation Xrotation Yrotation
                JOINT lIndex2
                {
                  OFFSET 2.54057 -0.884171 1.56538
                  CHANNELS 3 Zrotation Xrotation Yrotation
                  End Site
                  {
                    OFFSET 1.62519 -0.234802 1.16502
                  }
                }
              }
              JOINT lMid1
              {
                OFFSET 8.24714 1.18213 3.41376
                CHANNELS 3 Zrotation Xrotation Yrotation
                JOINT lMid2
                {
                  OFFSET 3.10165 -0.590103 1.0647
                  CHANNELS 3 Zrotation Xrotation Yrotation
                  End Site
                  {
                    OFFSET 2.48547 -0.328903 0.83742
                  }
                }
              }
              JOINT lRing1
              {
                OFFSET 8.82822 0.546677 1.51678
                CHANNELS 3 Zrotation Xrotation Yrotation
                JOINT lRing2
                {
                  OFFSET 2.60934 -0.819778 -0.0198488
                  CHANNELS 3 Zrotation Xrotation Yrotation
                  End Site
                  {
                    OFFSET 2.33842 -0.294052 0.168128
                  }
                }
              }
              JOINT lPinky1
              {
                OFFSET 8.27202 -0.0477905 -0.4584
                CHANNELS 3 Zrotation Xrotation Yrotation
                JOINT lPinky2
                {
                  OFFSET 1.82734 -0.647385 -0.700984
                  CHANNELS 3 Zrotation Xrotation Yrotation
                  End Site
                  {
                    OFFSET 1.69225 -0.51767 -0.607171
                  }
                }
              }
            }
          }
        }
      }
    }
  }
  JOINT rButtock
  {
    OFFSET -8.77824 4.35084 1.2192
    CHANNELS 3 Zrotation Xrotation Yrotation
    JOINT rThigh
    {
      OFFSET 0 -1.70687 -2.19456
      CHANNELS 3 Zrotation Xrotation Yrotation
      JOINT rShin
      {
        OFFSET 0 -36.8199 0.73152
        CHANNELS 3 Zrotation Xrotation Yrotation
        JOINT rFoot
        {
          OFFSET 0.73152 -45.1104 -5.12064
          CHANNELS 3 Zrotation Xrotation Yrotation
          End Site
          {
            OFFSET -1.1221 -3.69964 12.103
          }
        }
      }
    }
  }
  JOINT lButtock
  {
    OFFSET 8.77824 4.35084 1.2192
    CHANNELS 3 Zrotation Xrotation Yrotation
    JOINT lThigh
    {
      OFFSET 0 -1.70687 -2.19456
      CHANNELS 3 Zrotation Xrotation Yrotation
      JOINT lShin
      {
        OFFSET 0 -36.8199 0.73152
        CHANNELS 3 Zrotation Xrotation Yrotation
        JOINT lFoot
        {
          OFFSET -0.73152 -45.1104 -5.12064
          CHANNELS 3 Zrotation Xrotation Yrotation
          End Site
          {
            OFFSET 1.1221 -3.69964 12.103
          }
        }
      }
    }
  }
}
MOTION
Frames:	4
Frame Time:	0.03333
-0.03295000076468568 51.69490051269531 0.2490000061225146 -13.653599917888641 -25.664800107479095 11.642299890518188 10.665100067853928 3.9814700558781624 2.6288099214434624 3.2541099563241005 -6.060669869184494 0.7676400057971478 -5.181079991161823 11.519599556922913 -3.7974001094698906 6.386540159583092 -19.919099360704422 -5.977640077471733 0.0 0.0 0.0 0.0 0.0 0.0 -3.197442310920451e-13 0.0 0.0 103.45299482345581 50.79609811306 -52.45849907398224 -27.27840095758438 -43.223100900650024 89.9176025390625 -3.8576100021600723 -47.36650228500366 -8.780970275402069 3.531095416065e-09 -8.205915946746245e-09 9.92486093309708e-10 6.05611560899888e-09 -1.385387804475613e-08 1.8212631403002888e-09 3.531095416065e-09 -8.205915946746245e-09 9.92486093309708e-10 7.7309102565050125 5.474880114197731 0.41731400415301323 3.531095416065e-09 -8.205915946746245e-09 9.92486093309708e-10 2.905540131032467 0.9651830233633518 0.102901995414868 3.531095416065e-09 -8.205915946746245e-09 9.92486093309708e-10 10.27859978377819 0.7318009994924068 0.025912300043273717 3.531095416065e-09 -8.205915946746245e-09 9.92486093309708e-10 2.221670038998127 -0.733487019315362 -0.2089200052432716 -3.197442310920451e-13 0.0 0.0 -40.84360063076019 29.413999915122986 -38.42009872198105 16.458699703216553 -9.120370298624039 -30.647000670433044 1.0761099681258202 28.0839005112648 -4.3007199838757515 1.8198242912603746e-09 1.0109033610206097e-08 5.6991211749846116e-09 3.262030645601044e-09 1.7046204447979107e-08 9.791847332962789e-09 1.8198242912603746e-09 1.0109033610206097e-08 5.6991211749846116e-09 -7.7309102565050125 5.474880114197731 -0.41731400415301323 1.8198242912603746e-09 1.0109033610206097e-08 5.6991211749846116e-09 -2.905540131032467 0.9651830233633518 -0.102901995414868 1.8198242912603746e-09 1.0109033610206097e-08 5.6991211749846116e-09 -10.27859978377819 0.7318009994924068 -0.025912300043273717 1.8198242912603746e-09 1.0109033610206097e-08 5.6991211749846116e-09 -2.221670038998127 -0.733487019315362 0.2089200052432716 0.0 0.0 0.0 -10.153700038790703 14.52810063958168 0.3584139933809638 0.10741399484686553 29.45619910955429 2.412510048598051 -11.445200443267822 -18.58409956097603 -36.12959951162338 0.0 0.0 0.0 82.60719895362854 -52.41480052471161 77.71269857883453 7.55125992000103 82.05679893493652 -7.0917002856731415 -0.13990100473165512 -5.003870129585266 -3.9576299116015434
-0.04341000031854492 51.69499969482422 0.2470000060275197 -13.615200072526932 -25.691399574279785 11.632500439882278 10.60499981045723 3.9848999306559563 2.5532500818371773 3.287759944796562 -6.0649701207876205 0.7478779926896095 -5.358189940452576 11.662900596857071 -4.266440011560917 6.441060081124306 -20.14419972896576 -6.878260150551796 0.0 0.0 0.0 0.0 0.0 0.0 -1.5987211554602254e-13 0.0 0.0 103.44599962234497 50.88899910449982 -52.44149923324585 -27.277700901031494 -43.22490066289902 89.92200136184692 -3.8617999479174614 -47.38480031490326 -8.78665991127491 1.539408600592651e-09 -3.7627501114911865e-09 3.2741809263825417e-10 2.644924279593397e-09 -6.3718630372022744e-09 6.139089236967266e-10 1.539408600592651e-09 -3.7627501114911865e-09 3.2741809263825417e-10 7.7309102565050125 5.474880114197731 0.41731400415301323 1.539408600592651e-09 -3.7627501114911865e-09 3.2741809263825417e-10 2.905540131032467 0.9651830233633518 0.102901995414868 1.539408600592651e-09 -3.7627501114911865e-09 3.2741809263825417e-10 10.27859978377819 0.7318009994924068 0.025912300043273717 1.539408600592651e-09 -3.7627501114911865e-09 3.2741809263825417e-10 2.221670038998127 -0.733487019315362 -0.2089200052432716 -1.5987211554602254e-13 0.0 0.0 -40.85850030183792 29.371500313282013 -38.3216992020607 16.47339954972267 -9.131089746952057 -30.675799548625946 1.0762099642306566 28.085099458694458 -4.300929866731167 6.249400996694021e-10 4.6350123739102855e-09 2.404476617812179e-09 1.1291767521015572e-09 7.840128546376945e-09 4.133653419557959e-09 6.249400996694021e-10 4.6350123739102855e-09 2.404476617812179e-09 -7.7309102565050125 5.474880114197731 -0.41731400415301323 6.249400996694021e-10 4.6350123739102855e-09 2.404476617812179e-09 -2.905540131032467 0.9651830233633518 -0.102901995414868 6.247802275538561e-10 4.6350123739102855e-09 2.404476617812179e-09 -10.27859978377819 0.7318009994924068 -0.025912300043273717 6.249400996694021e-10 4.6350123739102855e-09 2.404476617812179e-09 -2.221670038998127 -0.733487019315362 0.2089200052432716 0.0 0.0 0.0 -10.18780030310154 14.529599994421005 0.38921899627894163 0.10760600329376757 29.43400114774704 2.4103800393640995 -11.454499661922455 -18.60490009188652 -36.12079918384552 0.0 0.0 0.0 82.56979823112488 -52.388402223587036 77.70860016345978 7.53664992749691 82.04309821128845 -7.07596980035305 -0.13934099930338562 -4.994710050523281 -3.962150104343891
-0.05561000008310657 51.69559860229492 0.24400000600144267 -13.597399592399597 -25.695200264453888 11.640399545431137 10.559699982404709 3.9819401130080223 2.4731199257075787 3.3130699396133423 -6.072800159454346 0.7262729667127132 -5.490570031106472 11.7924003303051 -4.673450142145157 6.475250199437141 -20.360600352287292 -7.663930132985115 0.0 0.0 0.0 0.0 0.0 0.0 0.0 0.0 0.0 103.44900369644165 50.96289932727814 -52.42779850959778 -27.2759011387825 -43.229801058769226 89.93279993534088 -3.8675301522016525 -47.409900426864624 -8.794449716806412 -7.01838587247039e-10 1.2585132935782894e-09 -4.092726157978177e-10 -1.1947243194754265e-09 2.0872903405688703e-09 -7.366907084360719e-10 -7.01838587247039e-10 1.2585132935782894e-09 -4.092726157978177e-10 7.7309102565050125 5.474880114197731 0.41731400415301323 -7.01838587247039e-10 1.2585132935782894e-09 -4.092726157978177e-10 2.905540131032467 0.9651830233633518 0.102901995414868 -7.01838587247039e-10 1.2585132935782894e-09 -4.092726157978177e-10 10.27859978377819 0.7318009994924068 0.025912300043273717 -7.01838587247039e-10 1.2585132935782894e-09 -4.092726157978177e-10 2.221670038998127 -0.733487019315362 -0.2089200052432716 0.0 0.0 0.0 -40.8552011847496 29.333201050758362 -38.24459910392761 16.48320034146309 -9.137869700789452 -30.694701075553894 1.0767400357872248 28.09130072593689 -4.302060082554817 -6.623501747071714e-10 -1.1638690011750441e-09 -1.1050360626541078e-09 -1.1681855482947867e-09 -1.9107915250060614e-09 -1.8826540326699615e-09 -6.623501747071714e-10 -1.1638690011750441e-09 -1.1050360626541078e-09 -7.7309102565050125 5.474880114197731 -0.41731400415301323 -6.623501747071714e-10 -1.1638690011750441e-09 -1.1050360626541078e-09 -2.905540131032467 0.9651830233633518 -0.102901995414868 -6.623501747071714e-10 -1.1638690011750441e-09 -1.1050360626541078e-09 -10.27859978377819 0.7318009994924068 -0.025912300043273717 -6.623501747071714e-10 -1.1638690011750441e-09 -1.1050360626541078e-09 -2.221670038998127 -0.733487019315362 0.2089200052432716 0.0 0.0 0.0 -10.20119994878769 14.52810063958168 0.405954010784626 0.1072719949297607 29.411400854587555 2.4084600806236267 -11.47469937801361 -18.643999993801117 -36.11049950122833 0.0 0.0 0.0 82.55899965763092 -52.391899824142456 77.71689891815186 7.520529851317406 82.02880203723907 -7.059700191020966 -0.1367409958038479 -4.976569935679436 -3.9594900235533714
-0.06131000017921906 51.69620132446289 0.24200000590644777 -13.599600344896317 -25.671800673007965 11.661999374628067 10.557399988174438 3.968700058758259 2.3859799839556217 3.3210401237010956 -6.090620085597038 0.7018059818074107 -5.603469908237457 11.914899498224258 -5.021930113434792 6.516369804739952 -20.539100021123886 -8.33617016673088 0.0 0.0 0.0 0.0 0.0 0.0 -1.5987211554602254e-13 0.0 0.0 103.46800446510315 51.00419998168945 -52.427101135253906 -27.272400856018066 -43.240199983119965 89.95320081710815 -3.8715098798274994 -47.42730259895325 -8.799849674105644 -1.482653999573813e-09 2.7907276489713695e-09 -7.776179700158536e-10 -2.526299169858248e-09 4.6273385123640765e-09 -1.4017587091075256e-09 -1.482653999573813e-09 2.7907276489713695e-09 -7.776179700158536e-10 7.7309102565050125 5.474880114197731 0.41731400415301323 -1.482653999573813e-09 2.7907276489713695e-09 -7.776179700158536e-10 2.905540131032467 0.9651830233633518 0.102901995414868 -1.482653999573813e-09 2.7907276489713695e-09 -7.776179700158536e-10 10.27859978377819 0.7318009994924068 0.025912300043273717 -1.482653999573813e-09 2.7907276489713695e-09 -7.776179700158536e-10 2.221670038998127 -0.733487019315362 -0.2089200052432716 -1.5987211554602254e-13 0.0 0.0 -40.829698741436005 29.302698969841003 -38.209301233291626 16.479700058698654 -9.137109965085983 -30.6892991065979 1.0773400124162436 28.09840053319931 -4.303330108523369 -1.0943246309125243e-09 -1.4529177860822529e-09 -1.6370904631912708e-09 -1.927897841369486e-09 -2.3507595869887155e-09 -2.8035174182150513e-09 -1.0943246309125243e-09 -1.4529177860822529e-09 -1.6370904631912708e-09 -7.7309102565050125 5.474880114197731 -0.41731400415301323 -1.0943246309125243e-09 -1.4529177860822529e-09 -1.6370904631912708e-09 -2.905540131032467 0.9651830233633518 -0.102901995414868 -1.0943246309125243e-09 -1.4529177860822529e-09 -1.6370904631912708e-09 -10.27859978377819 0.7318009994924068 -0.025912300043273717 -1.0943246309125243e-09 -1.4529177860822529e-09 -1.6370904631912708e-09 -2.221670038998127 -0.733487019315362 0.2089200052432716 0.0 0.0 0.0 -10.169099941849709 14.529799818992615 0.3832740057259798 0.10632299585267901 29.387700855731964 2.4075300246477127 -11.494600027799606 -18.689400404691696 -36.09079867601395 0.0 0.0 0.0 82.6132982969284 -52.442598938941956 77.75500237941742 7.509640082716942 82.01900124549866 -7.050010040402412 -0.13266700319945812 -4.94875006377697 -3.9546600356698036
